<?xml version="1.0" encoding="utf-8"?>
<!-- Generator: Adobe Illustrator 21.0.2, SVG Export Plug-In . SVG Version: 6.00 Build 0)  -->
<svg version="1.1" id="Layer_1" xmlns="http://www.w3.org/2000/svg" xmlns:xlink="http://www.w3.org/1999/xlink" x="0px" y="0px"
	 viewBox="0 0 714 714" style="enable-background:new 0 0 714 714;" xml:space="preserve">
<style type="text/css">
	.st0{fill:url(#SVGID_1_);}
	.st1{fill:#FFFFFF;}
</style>
<g>
	
		<linearGradient id="SVGID_1_" gradientUnits="userSpaceOnUse" x1="208.5076" y1="555.7075" x2="505.4924" y2="852.6924" gradientTransform="matrix(1 0 0 1 0 -347.2)">
		<stop  offset="0" style="stop-color:#37B3E7"/>
		<stop  offset="1" style="stop-color:#2D59A5"/>
	</linearGradient>
	<circle class="st0" cx="357" cy="357" r="210"/>
	<path class="st1" d="M452.3,349.5c-2.2-1.3-4.5-2.5-6.8-3.5c-0.1,0-0.2-0.1-0.3-0.1c0.6-0.5,1.1-0.9,1.6-1.4c2.9-2.4,6-4.9,8.5-7.9
		c11.8-13.7,15.2-28.9,10.2-45.4c-4.1-13.6-13.2-23.7-27.6-31c-10.8-5.5-23.3-8.1-38.2-8.1H297l-18.9,0.1l0.3,119.5h-54.8v47.1h79.9
		l-25,15.1l0.1,28.1h21.9l101.7-0.1c8.1,0,16.5-0.8,24.9-2.2c28.7-4.9,51.2-32.2,51.2-62C478.3,376,469.5,359.8,452.3,349.5z
		 M409.5,330.7c-2.5,1.7-5.7,2.6-9,3.4c-2.4,0.6-5.1,0.6-7.3,0.6c-18.6,0-37.5,0-55.8,0h-10.2c-0.4,0-0.7,0-1.1,0V309
		c0-1.4,0-2.9,0-4.3c0-3.5,0-7.2,0-10.8c0-0.1,0-0.3,0-0.3c0.1,0,0.1,0,0.2,0c8.4,0,16.8,0,25.2,0c15.6,0,31.6,0,47.5,0.2
		c8.7,0.1,16.1,5.9,18.6,14.5C420,316.5,416.7,325.7,409.5,330.7z M344.5,420.8c-5.8,0-11.6,0-17.4,0c-0.3,0-0.6,0-0.9,0
		c0-0.4,0-0.9,0-1.3c0-4.3,0-8.6,0-12.9c0-10.7,0-21.7-0.1-32.6c0-0.8,0-1.1,0.1-1.3c0.1,0,0.4-0.1,0.9-0.1
		c18.9,0.1,38,0.1,56.6,0.1h17c10.7,0,18.3,3.5,23.7,10.9c4.4,6,5.5,14,2.9,21.4c-2.5,7.1-7.9,12.2-14.8,14
		c-4.4,1.1-8.5,1.7-12.2,1.8C381.8,420.8,362.8,420.8,344.5,420.8z"/>
</g>
</svg>
