<?xml version="1.0" encoding="utf-8"?>
<!-- Generator: Adobe Illustrator 21.0.2, SVG Export Plug-In . SVG Version: 6.00 Build 0)  -->
<svg version="1.1" id="Layer_1" xmlns="http://www.w3.org/2000/svg" xmlns:xlink="http://www.w3.org/1999/xlink" x="0px" y="0px"
	 viewBox="0 0 1809.7 719.4" style="enable-background:new 0 0 1809.7 719.4;" xml:space="preserve">
<style type="text/css">
	.st0{fill:url(#SVGID_1_);}
	.st1{fill:#FFFFFF;}
</style>
<g>
	
		<linearGradient id="SVGID_1_" gradientUnits="userSpaceOnUse" x1="208.5076" y1="558.4263" x2="505.4924" y2="855.4112" gradientTransform="matrix(1 0 0 1 0 -347.2)">
		<stop  offset="0" style="stop-color:#30B5EC"/>
		<stop  offset="1" style="stop-color:#1E58BB"/>
	</linearGradient>
	<circle class="st0" cx="357" cy="359.7" r="210"/>
	<path class="st1" d="M452.3,352.2c-2.2-1.3-4.5-2.5-6.8-3.5c-0.1,0-0.2-0.1-0.3-0.1c0.6-0.5,1.1-0.9,1.6-1.4c2.9-2.4,6-4.9,8.5-7.9
		c11.8-13.7,15.2-28.9,10.2-45.4c-4.1-13.6-13.2-23.7-27.6-31c-10.8-5.5-23.3-8.1-38.2-8.1H297l-18.9,0.1l0.3,119.5h-54.8v47.1h79.9
		l-25,15.1l0.1,28.1h21.9l101.7-0.1c8.1,0,16.5-0.8,24.9-2.2c28.7-4.9,51.2-32.2,51.2-62C478.3,378.7,469.5,362.5,452.3,352.2z
		 M409.5,333.4c-2.5,1.7-5.7,2.6-9,3.4c-2.4,0.6-5.1,0.6-7.3,0.6c-18.6,0-37.5,0-55.8,0h-10.2c-0.4,0-0.7,0-1.1,0v-25.7
		c0-1.4,0-2.9,0-4.3c0-3.5,0-7.2,0-10.8c0-0.1,0-0.3,0-0.3c0.1,0,0.1,0,0.2,0c8.4,0,16.8,0,25.2,0c15.6,0,31.6,0,47.5,0.2
		c8.7,0.1,16.1,5.9,18.6,14.5C420,319.2,416.7,328.4,409.5,333.4z M344.5,423.5c-5.8,0-11.6,0-17.4,0c-0.3,0-0.6,0-0.9,0
		c0-0.4,0-0.9,0-1.3c0-4.3,0-8.6,0-12.9c0-10.7,0-21.7-0.1-32.6c0-0.8,0-1.1,0.1-1.3c0.1,0,0.4-0.1,0.9-0.1
		c18.9,0.1,38,0.1,56.6,0.1h17c10.7,0,18.3,3.5,23.7,10.9c4.4,6,5.5,14,2.9,21.4c-2.5,7.1-7.9,12.2-14.8,14
		c-4.4,1.1-8.5,1.7-12.2,1.8C381.8,423.5,362.8,423.5,344.5,423.5z"/>
	<g>
		<path class="st1" d="M850.3,343.1c3.2,1.5,6.5,3,9.6,4.8c17.2,10,25,25.4,25.1,45c0,28-21.6,53.5-49.5,58.1
			c-8.1,1.3-16.4,2.1-24.6,2.1c-39.5,0.2-79,0.1-118.6,0.1c-1,0-2,0-3.3,0c0-66.5,0-132.8,0-199.4c1-0.1,1.9-0.2,2.9-0.2
			c38.8,0,77.5,0,116.3,0c12.9,0,25.6,1.9,37.3,7.7c12.6,6.2,22.3,15.2,26.6,28.9c5,15.8,1.1,30-9.8,42.2
			C859,336.4,854.5,339.5,850.3,343.1z M733,417.1c1.2,0.1,2,0.1,2.8,0.1c24.4,0,48.9,0.1,73.3-0.1c4.2,0,8.6-0.7,12.7-1.8
			c16.2-4,23-24,12.9-37.3c-6.4-8.4-15.2-11.3-25.3-11.3c-24.5,0-49,0-73.6-0.1c-2.6,0-3.1,0.9-3,3.2c0.1,14.7,0,29.4,0.1,44.1
			C732.9,414.9,733,415.8,733,417.1z M732.9,333.7c1.3,0.1,2.2,0.1,3.1,0.1c22,0,44,0,66,0c2.6,0,5.3,0,7.8-0.7
			c3.3-0.8,6.8-1.7,9.6-3.6c8-5.4,11.5-15.2,8.9-23.8c-2.6-9-10.6-15.4-20.5-15.5c-24.2-0.3-48.5-0.1-72.7-0.2
			c-1.7,0-2.3,0.6-2.3,2.3c0.1,4.9,0,9.7,0,14.6C732.9,315.7,732.9,324.5,732.9,333.7z"/>
		<path class="st1" d="M1115.5,453.2c0-66.7,0-132.9,0-199.5c1.2,0,2.2,0,3.2,0c38.3,0,76.6,0,114.9,0c13.3,0,26.4,1.7,38.4,7.7
			c15.6,7.7,26.4,19.4,28.4,37.3c1.5,13-2.9,24.4-11.7,33.9c-3.6,3.9-8,6.9-12.2,10.5c1.6,0.7,3.6,1.6,5.5,2.5
			c11.4,5.4,20.2,13.5,25.1,25.3c10.7,26.2,0.9,54.1-21.3,70c-9.9,7.2-21.3,10.5-33.3,11.5c-6.7,0.6-13.5,0.7-20.2,0.7
			c-37.7,0.1-75.3,0-113,0C1118.2,453.2,1117,453.2,1115.5,453.2z M1159.4,417c1,0.1,1.8,0.2,2.6,0.2c24.6,0,49.3,0.1,73.9,0
			c5.7,0,11.3-0.9,16.6-3.4c15.1-7.1,17.8-28.8,5.1-39.6c-6.5-5.5-13.9-7.4-22.1-7.4c-24.4,0-48.7,0-73.1,0c-1,0-2,0.1-3,0.2
			C1159.4,383.8,1159.4,400.3,1159.4,417z M1159.2,333.6c1.2,0.1,2,0.2,2.8,0.2c22.3,0,44.6,0,66.8,0c2.8,0,5.6-0.3,8.4-0.8
			c15.3-3,23-19.4,15.2-32.3c-4.2-6.9-10.6-10.3-18.5-10.4c-24.1-0.2-48.3-0.1-72.4-0.2c-2,0-2.3,0.9-2.3,2.6c0.1,6.6,0,13.1,0,19.7
			C1159.2,319.3,1159.2,326.3,1159.2,333.6z"/>
		<path class="st1" d="M1342.5,314.6c8.2-2.9,15.9-5.9,23.8-8.4c18.5-5.7,37.5-7.9,56.8-6.6c12,0.8,23.7,3.2,34.6,8.7
			c15.4,7.8,23.5,19.9,23.4,37.4c-0.1,24.2,0,48.3,0,72.5c0,11.2,0.5,22.3,3.9,33c0.1,0.4,0.1,0.9,0.2,1.7c-0.9,0.1-1.7,0.2-2.4,0.2
			c-11.7,0-23.4-0.1-35.1,0.1c-2.1,0-2.8-0.8-3.2-2.6c-1-4.6-2-9.3-3-14.2c-3.1,2.6-5.9,5.1-8.9,7.5c-12.4,9.6-26.7,13.1-42.1,12.9
			c-13-0.2-25.2-3-36.3-10c-23.4-14.9-28.7-47.8-12.1-68.4c7.4-9.1,17.1-14.8,28.2-17.9c17.8-5,35.7-5.5,53.4,0
			c5.1,1.6,9.8,4.6,14.6,6.9c0.6,0.3,1.1,0.6,2.1,1.1c0-5.2,0.1-10.1,0-15c-0.4-13.7-10.1-19.2-20.2-21.1
			c-14.8-2.8-29.3,0.1-43.4,4.5c-7.2,2.2-14.2,5.1-21.7,7.9C1351.1,335.3,1347,325.4,1342.5,314.6z M1404.9,385.3
			c-2.7,0.2-6,0.2-9.2,0.7c-3.3,0.6-6.6,1.3-9.7,2.5c-11.2,4.3-16,15.4-11.1,25.7c4,8.4,11.6,11.4,20.1,12.2
			c16.6,1.6,30.9-3.8,43.5-14.3c1.1-0.9,1.8-2.7,2-4.2c0.3-2.7-0.1-5.4,0.2-8.1c0.4-3.2-1.1-4.9-3.7-6.5
			C1427.2,387.6,1416.6,385.5,1404.9,385.3z"/>
		<path class="st1" d="M1662.7,304.1c-4,8.5-7.7,16.3-11.3,24c-19.1,40.5-38.3,80.9-57.5,121.4c-10.3,21.7-20.5,43.4-30.9,65.1
			c-0.4,0.8-1.4,1.7-2.1,1.7c-13.5,0.1-27,0.1-41,0.1c0.6-1.3,1-2.3,1.4-3.2c12-23.8,24-47.6,36-71.4c0.9-1.8,0.9-3.2,0.1-4.9
			c-15.8-35.1-31.5-70.3-47.2-105.4c-3.8-8.4-7.6-16.9-11.3-25.3c-0.2-0.5-0.3-1-0.5-1.9c1.1-0.1,2-0.2,2.9-0.2
			c13.2,0,26.4,0,39.6-0.1c2,0,2.9,0.7,3.7,2.5c9,22.3,18,44.5,27.1,66.8c2.4,5.9,4.8,11.8,7.2,17.6c0.3,0.7,1.1,1.3,1.7,1.9
			c0.6-0.6,1.4-1.2,1.7-1.9c12.2-27.5,24.4-55,36.6-82.5c1.9-4.4,1.9-4.4,6.7-4.4c11.1,0,22.3,0,33.4,0
			C1660,304.1,1661,304.1,1662.7,304.1z"/>
		<path class="st1" d="M984.3,332.2c0-10.2,0-20,0-30.2c8.6,0,17.1,0,25.8,0c0-14.2,0-28,0-42c13.6,0,26.8,0,40.4,0
			c0,13.9,0,27.7,0,42c1.5,0,2.5,0,3.6,0c10.1,0,20.2,0.1,30.3,0c2.2,0,2.9,0.6,2.9,2.9c-0.1,9,0,18,0,27.3
			c-1.2,0.1-2.1,0.1-3.1,0.1c-10.2,0-20.4,0.1-30.6,0c-2.4,0-3,0.7-3,3c0.1,24.4,0,48.9,0.1,73.3c0,8.8,4.2,13.5,13.1,13.8
			c6.2,0.2,12.5-0.7,18.7-1.3c3.4-0.3,3.4-0.4,3.7,2.9c0.8,8.1,1.4,16.2,2.5,24.3c0.3,2.4-0.4,3.7-2.4,4.2
			c-4.2,1.2-8.4,2.5-12.8,3.1c-10.1,1.4-20.3,2-30.4-0.2c-19.8-4.3-32.4-18.9-32.7-39c-0.4-26.7-0.2-53.4-0.3-80.1c0-4,0-4-4.1-4
			C998.8,332.2,991.7,332.2,984.3,332.2z"/>
		<path class="st1" d="M957.6,453c-1,0.1-1.8,0.2-2.7,0.2c-11.6,0-23.2-0.1-34.8,0.1c-2.3,0-3-0.6-3-3c0.1-47.8,0.1-95.5,0-143.3
			c0-2.2,0.6-2.9,2.9-2.9c11.7,0.1,23.4,0.1,35.1,0c2.1,0,2.7,0.7,2.7,2.7c0,48,0,96.1,0,144.1C957.8,451.5,957.7,452.1,957.6,453z"
			/>
		<path class="st1" d="M936.2,236.5c10.5,0.6,18.1,4,22.7,12.3c5.3,9.3,3,19.9-5.6,26.5c-9.7,7.4-24,7-32.9-0.9
			c-5.8-5.2-8.2-11.9-6.7-19.5c1.7-8.1,6.8-13.7,14.5-16.5C931.1,237.2,934.3,236.9,936.2,236.5z"/>
	</g>
</g>
</svg>
